<svg width="31" height="31" viewBox="0 0 31 31" fill="none" xmlns="http://www.w3.org/2000/svg">
<path d="M1.07659 28.9477C1.63935 29.7111 2.34309 30.1966 3.26328 30.4418C3.98866 30.5488 4.73804 30.5207 5.41604 30.2317C5.48682 30.2025 5.48682 30.2025 5.55936 30.1727C5.70193 30.1079 5.82767 30.0474 5.92672 29.9512C6.03659 29.8445 6.08698 29.6819 6.07052 29.5296C6.04871 29.3279 5.90355 29.1391 5.70412 29.1017C5.64212 29.0901 5.57332 29.0897 5.48624 29.0951C5.29845 29.132 5.13992 29.2115 4.96852 29.2946C4.34902 29.5637 3.70085 29.5099 3.07608 29.2958C2.38462 28.9764 1.94588 28.482 1.67211 27.7748C1.46736 27.1009 1.54399 26.417 1.8476 25.7858C2.18046 25.1821 2.66074 24.8124 3.31534 24.6C4.01616 24.4257 4.69592 24.4801 5.32829 24.8428C5.92732 25.2371 6.33506 25.8081 6.50119 26.5071C6.52752 26.6656 6.52927 26.8049 6.52284 26.9652C6.52108 27.0213 6.51991 27.0775 6.51816 27.1354C6.51465 27.2524 6.50997 27.3694 6.5047 27.487C6.50238 27.5925 6.50063 27.6718 6.50182 27.7345C6.50706 28.01 6.7888 28.227 7.06103 28.1843C7.13914 28.1748 7.21844 28.1595 7.28445 28.1167C7.30416 28.1039 7.32144 28.0903 7.33721 28.0754C7.44505 27.9735 7.48041 27.8182 7.50364 27.6716C7.51675 27.5889 7.5276 27.5062 7.53662 27.4203C7.54189 27.3793 7.54715 27.3384 7.55242 27.2963C7.57991 27.0476 7.57172 26.8353 7.53077 26.589C7.50211 26.279 7.55476 26.131 7.75015 25.8929C7.78583 25.8531 7.82093 25.8139 7.85778 25.7735C7.89464 25.7297 7.93208 25.6858 7.97069 25.6407C8.09646 25.4945 8.22457 25.3518 8.35444 25.209C8.39948 25.1587 8.44511 25.1078 8.49191 25.0558C8.82068 24.6919 9.15646 24.335 9.49751 23.9817C9.57999 23.8957 9.66248 23.8097 9.74496 23.7237C11.8778 21.4978 14.2769 20.0775 17.0462 18.7589C17.0924 18.7367 17.1381 18.7151 17.186 18.6922C18.0097 18.3003 18.8363 17.9148 19.6693 17.5439C19.7079 17.5269 19.7459 17.51 19.7851 17.4918C19.9624 17.4135 20.1396 17.3351 20.3169 17.2573C21.5401 16.7185 21.5401 16.7185 21.8689 16.0896C21.9332 15.9738 21.9976 15.858 22.0619 15.7421C22.0953 15.6819 22.128 15.621 22.1619 15.559C22.3328 15.2467 22.5124 14.9389 22.6914 14.6312C22.727 14.5687 22.7633 14.5061 22.8002 14.4417C23.1231 13.8807 23.4524 13.3238 23.7835 12.7675C23.821 12.7043 23.8584 12.6411 23.8976 12.5762C23.931 12.5206 23.9637 12.4644 23.9982 12.4071C24.1073 12.2207 25.0677 10.6303 25.4629 9.82519C25.6006 9.5446 25.6844 9.27194 25.4867 9.51402C24.6522 10.5356 24.4358 10.6845 24.7707 9.40866C24.8515 9.10113 24.8733 8.90588 24.8119 8.91473C24.5791 9.0756 23.1313 11.7736 22.995 12.0193C22.9394 12.1187 22.9394 12.1187 22.8827 12.2193C22.8633 12.2544 22.844 12.2889 22.8242 12.3252C22.7633 12.4352 22.7019 12.5452 22.6399 12.6551C22.5767 12.7681 22.5129 12.8815 22.4498 12.9944C22.2503 13.3507 22.0455 13.704 21.8396 14.0568C21.8098 14.1077 21.7805 14.1586 21.7501 14.2106C21.6887 14.3159 21.6261 14.4201 21.5617 14.5236C21.4722 14.6734 21.4026 14.8249 21.3354 14.9857C20.8615 16.0171 19.9969 16.3839 19.0252 16.8472C18.7971 16.9566 18.5707 17.0701 18.3443 17.1824C17.9652 17.3707 17.585 17.5568 17.2036 17.7405C16.6654 18.0002 16.1295 18.2646 15.5943 18.5302C15.2222 18.7139 14.8496 18.897 14.4775 19.0795C14.3874 19.124 14.2973 19.1678 14.2073 19.2123C13.951 19.3381 13.6948 19.4633 13.4374 19.5867C13.3602 19.6247 13.2824 19.6622 13.2046 19.7008C13.0993 19.7522 12.9928 19.8031 12.8869 19.854C12.798 19.8973 12.798 19.8973 12.7073 19.9412C12.6032 19.9844 12.5729 19.9969 12.5173 19.9972C12.4591 19.9975 12.4131 19.9872 12.3611 19.9611C12.1467 19.8536 12.2077 19.5207 12.3773 19.3511C17.1795 14.5488 21.9844 9.74399 26.92 4.8083C27.0243 4.70409 27.1923 4.83224 27.1191 4.9602C27.0472 5.08656 26.9752 5.21291 26.9015 5.34337C26.5102 6.03073 26.1159 6.71575 25.7111 7.39551C25.5566 7.65641 25.4016 7.91673 25.2472 8.17764C25.2162 8.2297 25.2162 8.2297 25.1846 8.28235C25.06 8.49295 24.936 8.70355 24.8119 8.91473C24.7546 9.01242 24.6967 9.11011 24.6388 9.2078C24.6043 9.26689 24.5698 9.32597 24.5341 9.3874C24.5037 9.43888 24.4732 9.49094 24.4416 9.54417C24.4004 9.63272 24.3714 9.71413 24.3507 9.79799C24.3107 9.96029 24.3332 10.1398 24.4383 10.2698C24.4537 10.2888 24.47 10.3068 24.4879 10.3243C24.5908 10.4248 24.7285 10.473 24.8706 10.4504C24.997 10.4302 25.1209 10.3541 25.2027 10.2556C25.427 9.98561 25.5887 9.67452 25.7626 9.36634C25.8409 9.22886 25.9193 9.09139 25.9977 8.95392C26.0276 8.90127 26.0276 8.90127 26.0586 8.84745C26.2709 8.4754 26.4903 8.10744 26.7097 7.7389C27.0554 7.158 27.3958 6.5736 27.7328 5.98744C27.975 5.56625 28.2189 5.14622 28.4646 4.7262C28.7869 4.17397 29.1075 3.62057 29.4258 3.06542C29.6048 2.75362 29.7867 2.44416 29.9756 2.13762C30.0113 2.07971 30.0464 2.0218 30.0833 1.96213C30.15 1.85332 30.2178 1.7451 30.2863 1.63804C30.4465 1.37548 30.5285 1.18999 30.5248 0.921461C30.5232 0.806965 30.4966 0.686587 30.4145 0.606804C30.3369 0.531443 30.223 0.502258 30.1149 0.500943C29.7308 0.496271 29.4557 0.689452 29.1081 0.902125C29.0402 0.942489 28.973 0.98227 28.9057 1.02205C28.7671 1.10453 28.629 1.1876 28.4909 1.27067C28.1891 1.45202 27.8843 1.6281 27.5795 1.80535C27.4637 1.87262 27.3473 1.94048 27.2315 2.00834C27.1741 2.04168 27.1168 2.07503 27.0577 2.10954C26.9425 2.1774 26.8272 2.24468 26.712 2.31195C26.5382 2.41374 26.3639 2.51553 26.1902 2.61673C26.1323 2.65066 26.0749 2.684 26.0153 2.7191C25.5882 2.96831 25.16 3.21517 24.7312 3.46145C24.2088 3.76214 23.6888 4.06692 23.1705 4.37521C22.4041 4.83092 21.6325 5.27726 20.8598 5.72068C20.0197 6.2033 19.1826 6.68943 18.3507 7.18433C17.7739 7.52655 17.1936 7.86174 16.6127 8.19636C16.2313 8.41573 15.8505 8.63627 15.4703 8.85798C15.3843 8.90771 15.3843 8.90771 15.2971 8.9586C15.1906 9.02061 15.0842 9.0832 14.9789 9.14638C14.8876 9.19962 14.7958 9.25051 14.7016 9.29906C14.3506 9.48977 14.2166 9.73488 14.0481 10.09C14.0195 10.1473 13.9914 10.204 13.9621 10.2625C13.8984 10.3912 13.8352 10.5199 13.7726 10.6486C13.6509 10.8967 13.5257 11.1418 13.4 11.3875C13.3315 11.522 13.2631 11.6572 13.1946 11.7917C13.1496 11.8806 13.1046 11.969 13.0589 12.0579C12.9952 12.1836 12.9314 12.3094 12.8682 12.4358C12.8489 12.4732 12.8296 12.5107 12.8097 12.5493C12.7329 12.7041 11.6351 14.9851 10.9896 16.3996C10.6626 17.1161 10.8513 17.3101 11.2938 16.6586C11.6377 16.1523 11.8783 16.2625 11.6484 16.8297C11.6322 16.8695 11.6163 16.9086 11.6008 16.9467C11.4711 17.2655 11.5714 17.2605 11.7371 16.9589C12.3629 15.8199 13.8125 12.9048 13.9218 12.6587C13.9838 12.5241 14.0464 12.3901 14.109 12.2556C14.2067 12.0462 14.3032 11.8362 14.3956 11.625C14.8408 10.6165 15.2608 10.0572 16.2705 9.59039C16.4542 9.5044 16.6239 9.40436 16.797 9.29848C16.9006 9.23822 17.0047 9.17797 17.1082 9.11772C17.2264 9.04869 17.3446 8.97966 17.4627 8.91063C17.5218 8.8767 17.5803 8.84277 17.6406 8.80709C17.8155 8.7053 17.9904 8.60351 18.1647 8.50114C18.7661 8.15015 19.3675 7.80091 19.9712 7.45401C20.5602 7.11471 21.1458 6.76957 21.7302 6.42209C22.2456 6.11614 22.7639 5.81545 23.2834 5.51652C23.8795 5.17372 24.4732 4.82741 25.067 4.48051C25.3905 4.29156 25.7134 4.10319 26.0369 3.91482C26.1557 3.84521 26.2744 3.77618 26.3932 3.70656C26.4429 3.6779 26.4926 3.64865 26.5441 3.61882C26.567 3.60543 26.5909 3.63278 26.5741 3.65343C26.4419 3.81687 26.3035 3.96986 26.1533 4.11957C26.1007 4.1728 26.0474 4.22545 25.993 4.28044C25.9345 4.33835 25.8766 4.39685 25.8181 4.45477C25.7555 4.51736 25.6935 4.57937 25.6315 4.64138C25.4607 4.81278 25.2899 4.98301 25.1185 5.15383C24.9342 5.3381 24.7499 5.52237 24.5657 5.70664C24.2468 6.02605 23.9274 6.34487 23.608 6.66427C23.1459 7.12524 22.6843 7.5868 22.2228 8.04836C21.474 8.79714 20.7252 9.54593 19.9758 10.2941C19.2481 11.0213 18.5204 11.7484 17.7932 12.4761C17.7482 12.5206 17.7037 12.5656 17.6575 12.6119C17.4323 12.8365 17.2071 13.0617 16.9824 13.2864C15.1755 15.0927 13.3691 16.8986 11.5622 18.7038C11.4545 18.8114 11.2884 18.8501 11.1642 18.7622C11.0757 18.6996 11.035 18.5857 11.0607 18.4804C11.0942 18.3431 11.1497 18.2192 11.2191 18.085C11.246 18.0324 11.273 17.9803 11.3004 17.9265C11.3291 17.8709 11.3584 17.8153 11.3882 17.758C11.449 17.6387 11.5099 17.5193 11.5707 17.4C11.6667 17.2128 11.7632 17.0256 11.8597 16.839C11.9533 16.6582 12.0451 16.4769 12.1376 16.2955C12.1809 16.2125 12.1809 16.2125 12.2253 16.1282C12.3403 15.9015 12.4187 15.7038 12.4601 15.4831C12.5019 15.2611 12.4616 15.0064 12.2565 14.9118C12.1558 14.8653 12.0309 14.841 11.9216 14.8599C11.8986 14.8638 11.8772 14.8691 11.8566 14.8759C11.6794 14.9344 11.5623 15.1006 11.4722 15.2641C11.4389 15.3244 11.407 15.3859 11.3753 15.4502C11.3513 15.4959 11.3274 15.5415 11.3028 15.5889C11.1536 15.8784 11.0156 16.1686 10.8939 16.4704C10.1779 18.2371 8.96049 19.4972 7.6232 20.8093C7.38745 21.0421 7.1558 21.2791 6.92531 21.5166C6.69892 21.7506 6.47019 21.981 6.23853 22.2098C6.10223 22.3449 5.9671 22.4812 5.83372 22.6193C5.36305 23.1122 5.21772 23.2644 4.86818 23.39C4.45435 23.5387 4.00646 23.5664 3.56981 23.5143C2.89064 23.4687 2.20503 23.9045 1.69024 24.3052C0.405019 25.4898 0.156399 27.4741 1.07659 28.9477ZM5.95306 23.7161C6.03496 23.6366 6.03496 23.6366 6.11803 23.5558C6.17184 23.5026 6.22625 23.4494 6.28241 23.3944C6.36155 23.3174 6.47589 23.2888 6.58159 23.3207C6.95046 23.4317 7.31286 23.5572 7.67527 23.691C7.7636 23.7231 7.7636 23.7231 7.8531 23.7565C7.89065 23.7701 7.92816 23.7838 7.96566 23.7975C8.15967 23.8685 8.32796 24.0673 8.18011 24.2116C8.1105 24.2801 8.1105 24.2801 8.03913 24.3497C7.98882 24.3994 7.9391 24.4491 7.88703 24.5C7.83438 24.5515 7.78115 24.603 7.72675 24.6562C7.67351 24.7083 7.62028 24.7609 7.56587 24.8147C7.54276 24.8374 7.51965 24.8601 7.49654 24.8828C7.29692 25.0785 6.98688 25.1523 6.82703 24.923C6.57198 24.572 6.27831 24.3198 5.93024 24.063C5.86293 24.0048 5.7907 23.9144 5.83326 23.8363C5.85001 23.8055 5.88521 23.775 5.95306 23.7161ZM7.46292 22.6222C7.30668 22.5607 7.31388 22.357 7.42769 22.2335C7.52531 22.1277 7.62388 22.0226 7.72265 21.9179C7.79168 21.8412 7.79168 21.8412 7.86188 21.7629C7.93842 21.6775 7.9898 21.6201 8.03541 21.5774C8.23721 21.3882 8.55394 21.4083 8.80898 21.5154C8.93241 21.5581 9.05643 21.6002 9.17986 21.6423C9.3109 21.6897 9.44194 21.7377 9.57297 21.7862C9.67418 21.8231 9.67418 21.8231 9.77713 21.8605C10.0184 21.9487 10.0985 22.2489 9.92443 22.4378C9.79277 22.5807 9.6574 22.7201 9.51798 22.8574C9.48347 22.8919 9.44837 22.9264 9.41269 22.9615C9.25669 23.1164 9.02892 23.1758 8.8192 23.1098C8.51999 23.0157 8.22543 22.9114 7.93149 22.7989C7.8765 22.7784 7.82151 22.7579 7.76477 22.7369C7.6858 22.7064 7.6858 22.7064 7.60565 22.676C7.55885 22.6585 7.51147 22.6403 7.46292 22.6222ZM9.20852 20.4653C9.28223 20.3922 9.28223 20.3922 9.35711 20.3179C9.40976 20.2653 9.46299 20.2126 9.5174 20.1588C9.57356 20.1027 9.62972 20.0471 9.68646 19.9909C9.74262 19.9348 9.79878 19.8786 9.85552 19.8224C10.1067 19.5723 10.4914 19.5013 10.7422 19.7519C10.7517 19.7614 10.7613 19.7711 10.771 19.7809C10.8208 19.8312 10.8699 19.8809 10.9208 19.9318C10.9717 19.9839 11.0232 20.036 11.0758 20.0898C11.1273 20.1424 11.1794 20.1945 11.2332 20.2489C11.4641 20.4819 11.5351 20.8501 11.3001 21.0791C11.296 21.0832 11.2918 21.0872 11.2876 21.0913C11.1656 21.21 10.9898 21.2563 10.8259 21.2105C10.4573 21.1076 10.0958 20.9894 9.73385 20.8614C9.67242 20.8397 9.611 20.8181 9.54782 20.7959C9.46756 20.7674 9.38714 20.7392 9.30672 20.7108C9.18146 20.6666 9.10661 20.5505 9.20852 20.4653Z" fill="url(#paint0_linear_190_439)"/>
<defs>
<linearGradient id="paint0_linear_190_439" x1="15.5249" y1="30.4991" x2="15.5249" y2="0.500859" gradientUnits="userSpaceOnUse">
<stop stop-color="#F7A155"/>
<stop offset="0.754808" stop-color="#FB3C3C"/>
</linearGradient>
</defs>
</svg>
